<svg xmlns="http://www.w3.org/2000/svg" viewBox="0 0 64 64">
  <rect width="64" height="64" rx="14" fill="#0B6E60"/>
  <circle cx="32" cy="32" r="26" fill="#1A9E8A" opacity="0.22"/>
  <path d="M 8,32 C 12,24 16,24 20,32 C 24,40 28,40 32,32 C 36,24 40,24 44,32 C 48,40 52,40 56,32" stroke="#9BE8FF" stroke-width="1.6" fill="none" opacity="0.55" stroke-linecap="round"/>
  <path d="M 8,32 C 14,18 22,18 32,32 C 42,46 50,46 56,32" stroke="#FFD580" stroke-width="2.6" fill="none" opacity="0.8" stroke-linecap="round"/>
  <path d="M 8,32 C 22,8 32,8 32,32 C 32,56 42,56 56,32" stroke="white" stroke-width="5" fill="none" stroke-linecap="round"/>
  <circle cx="22" cy="9" r="3.6" fill="white"/>
  <circle cx="42" cy="55" r="3.6" fill="white"/>
</svg>
